<svg version="1.1" id="Layer_1" xmlns="http://www.w3.org/2000/svg" x="0" y="0" viewBox="0 0 81.9 88.8" style="enable-background:new 0 0 81.9 88.8" xml:space="preserve"><style>.st0{fill:#162b75}.st1{fill:#f26522}.st2{fill:#b57e73}.st3{fill:#fe8639}.st5{fill:#eea884}</style><path class="st0" d="M26.3 18.4c-1.3 0-2.3-1-2.3-2.3V7.9c0-1.8-1.5-3.3-3.3-3.3H7.9c-1.8 0-3.3 1.5-3.3 3.3V16c0 1.3-1.1 2.3-2.3 2.3C1 18.3 0 17.3 0 16V7.9C0 3.6 3.6 0 7.9 0h12.8c4.4 0 7.9 3.6 7.9 7.9V16c0 1.3-1 2.4-2.3 2.4z" transform="translate(20.189 20.604)"/><path class="st1" d="M62 62.5H7c-3.9 0-7-3.1-7-7V21.1c0-3.9 3.1-7 7-7h55c3.9 0 7 3.1 7 7v34.4c0 3.9-3.1 7-7 7z" transform="translate(0 20.604)"/><path class="st2" d="M62 0H7C3.1 0 0 3.1 0 7v8.7c0 3.9 3.1 7 7 7h55c3.9 0 7-3.1 7-7V7c0-3.9-3.1-7-7-7z" transform="translate(0 34.732)"/><path class="st2" d="M62 0h-6.3c3.9 0 7 3.1 7 7v34.4c0 3.9-3.1 7-7 7H62c3.9 0 7-3.1 7-7V7c0-3.9-3.1-7-7-7z" transform="translate(0 34.732)"/><path class="st2" d="M62 0H7C3.1 0 0 3.1 0 7v8.7c0 3.9 3.1 7 7 7h55c3.9 0 7-3.1 7-7V7c0-3.9-3.1-7-7-7z" transform="translate(0 34.732)"/><path class="st3" d="M59.8 36.8V21.1c0-3.9-3.1-7-7-7H7c-3.9 0-7 3.1-7 7v8.7c0 3.9 3.1 7 7 7h52.8z" transform="translate(0 20.604)"/><path class="st3" d="M62 14.1h-9.6c3.9 0 7 3.1 7 7v15.7H62c3.9 0 7-3.1 7-7v-8.7c0-3.9-3.1-7-7-7z" transform="translate(0 20.604)"/><path class="st1" d="M4.3 14C1.9 14 0 12.1 0 9.7V1.5C0 .7.7 0 1.5 0H7c.9 0 1.5.7 1.5 1.5v8.2c.1 2.4-1.8 4.3-4.2 4.3z" transform="translate(9.464 49.994)"/><path class="st3" d="M0 4.5v5.2C0 12.1 1.9 14 4.3 14s4.3-1.9 4.3-4.3V4.5H0z" transform="translate(9.464 49.994)"/><path d="M16.6.4v4.1l2.6 5.1v8.2H3.5V9.6L9 .4h7.6z" style="fill:#f7be9d" transform="translate(23.449 5.943)"/><path class="st5" d="M17.2 14.7c1.1 0 2 .9 2 2v4.8c0 1.1-.9 2-2 2s-2-.9-2-2v-4.8c0-1.1.9-2 2-2z" transform="translate(23.449 5.943)"/><path class="st5" d="M13.4 14.7c1.1 0 2 .9 2 2v4.8c0 1.1-.9 2-2 2s-2-.9-2-2v-4.8c0-1.1.9-2 2-2zM9.3 14.7c1.1 0 2 .9 2 2v4.8c0 1.1-.9 2-2 2s-2-.9-2-2v-4.8c0-1.1.9-2 2-2z" transform="translate(23.449 5.943)"/><path class="st5" d="M5.4 14.7c1.1 0 2 .9 2 2v4.8c0 1.1-.9 2-2 2s-2-.9-2-2v-4.8c0-1.1.9-2 2-2z" transform="translate(23.449 5.943)"/><path class="st5" d="M3.3.2V5L0 10v6.1s-.1 1.4 2.1 1.4c1.1.1 2-.7 2.1-1.8v-4.1c1.7-.9 3.2-2.2 4.4-3.8C9.8 5.7 10.8 0 10.8 0L3.3.2z" transform="translate(23.449 5.943)"/><path class="st0" d="M2667.3-64h-14.1c-1.1 0-1.9-.9-1.9-1.9v-4c0-1.1.9-1.9 1.9-1.9h14.3c1 0 1.8.8 1.8 1.8v4.1c-.1 1-1 1.9-2 1.9z" transform="translate(-2626.853 71.89)"/><g transform="translate(42.813 49.684)"><circle cx="19.6" cy="19.6" r="18.4" style="fill:#fff"/><path class="st3" d="M19.6 39.1C8.8 39.1 0 30.4 0 19.6S8.8 0 19.6 0s19.6 8.8 19.6 19.6c-.1 10.8-8.8 19.5-19.6 19.5zm0-35.2c-8.7 0-15.7 7-15.7 15.7s7 15.7 15.7 15.7 15.7-7 15.7-15.7c-.1-8.7-7.1-15.7-15.7-15.7z"/></g><path d="M55.2 59h13.9c.1 0 .1 0 .1.1v1.3c0 .1 0 .1-.1.1h-5.2v.1c.7.4 1.3 1.2 1.7 2.5l.1.4h3.4c.1 0 .1 0 .1.1v1.3c0 .1 0 .1-.1.1h-3.3c0 1.5-.9 2.9-2.7 4.3-1.6.9-2.7 1.4-3.4 1.4 0 0 0 .1-.1.1l7.5 9.7v.1h-2.8s-2.9-3.7-8.7-11.2v-.1h.9c3.2 0 5.1-1.1 5.7-3.4 0-.3.1-.5.1-.7V65h-7c-.1 0-.1 0-.1-.1v-1.3c0-.1 0-.1.1-.1h6.9c-.2-.9-.7-1.6-1.5-2.2-1.1-.6-2-.8-2.9-.8h-2.5c-.1 0-.1 0-.1-.1v-1.3c-.1 0-.1-.1 0-.1z" style="fill:#263572"/></svg>
