<svg xmlns="http://www.w3.org/2000/svg" width="84.837" height="87"><defs><style>.a{fill:#d4d2d2}.b{fill:#162b75}.c{fill:#f1f2f2}.d{fill:#f26522}</style></defs><g transform="translate(0 27.349)"><path class="a" d="M12.041 14.759a3.856 3.856 0 0 0-3.818-3.311H3.856A3.856 3.856 0 0 0 0 15.304v1.928a3.856 3.856 0 0 0 3.856 3.856h3.856l3.856 3.856h1.928ZM71.34 24.945h1.928l3.856-3.856h3.856a3.856 3.856 0 0 0 3.856-3.856v-1.928a3.856 3.856 0 0 0-3.856-3.856h-4.369a3.856 3.856 0 0 0-3.818 3.311ZM69.855 14.514c-1.362-9.5-9.493-12.7-19.088-12.706h-16.7c-9.595.009-17.726 3.209-19.088 12.706l-1.485 12.359h57.843Z"/><path class="b" d="M73.378 28.68H11.459l1.734-14.423a14.756 14.756 0 0 1 7.334-11.215c3.445-2.013 8-3.036 13.542-3.042h16.7c5.542.005 10.1 1.029 13.543 3.042a14.758 14.758 0 0 1 7.334 11.215l.005.041Zm-57.843-3.615h53.767L68.064 14.75c-1.068-7.379-6.887-11.125-17.3-11.135h-16.7c-10.409.01-16.228 3.757-17.3 11.135Z"/><path class="b" d="m81.655 43.127-1.658-11.569a7.712 7.712 0 0 0-7.635-6.613H12.475a7.712 7.712 0 0 0-7.635 6.613L3.182 43.127a7.728 7.728 0 0 0 7.635 8.811h63.2a7.728 7.728 0 0 0 7.635-8.811Z"/><path class="b" d="m81.655 43.127-1.658-11.569a7.712 7.712 0 0 0-7.635-6.613h-3.856a7.713 7.713 0 0 1 7.635 6.613l1.658 11.569a7.728 7.728 0 0 1-7.635 8.811h3.856a7.73 7.73 0 0 0 7.635-8.811Z"/><path class="a" d="M11.569 55.794a3.856 3.856 0 0 0 3.856 3.856h7.713a3.856 3.856 0 0 0 3.856-3.856v-3.856H11.569ZM57.843 55.794a3.856 3.856 0 0 0 3.856 3.856h7.712a3.856 3.856 0 0 0 3.856-3.856v-3.856H57.842Z"/><path class="c" d="M26.499 48.244v-8.789a4.47 4.47 0 0 1 4.469-4.47h22.4a4.47 4.47 0 0 1 4.47 4.47v8.789Z"/><rect class="c" width="9.059" height="4.575" rx="2.287" transform="translate(62.281 30.712)"/><rect class="c" width="9.059" height="4.575" rx="2.287" transform="translate(12.779 30.712)"/></g><g transform="translate(22.51)"><path class="d" d="M19.908 0a19.908 19.908 0 1 0 19.909 19.908A19.908 19.908 0 0 0 19.908 0Zm0 34.84a14.931 14.931 0 1 1 14.931-14.931A14.931 14.931 0 0 1 19.908 34.84Z"/><circle cx="14.931" cy="14.931" r="14.931" transform="translate(4.977 4.977)" style="fill:#fff"/><path class="d" d="M14.354 11.255h11.1c.063.008.094.04.094.094v1.056a.083.083 0 0 1-.094.094h-4.177v.094a3.27 3.27 0 0 1 1.385 1.971l.047.34h2.745c.063.008.094.039.094.094v1.056a.083.083 0 0 1-.094.094h-2.64q0 1.772-2.171 3.45a6.828 6.828 0 0 1-2.734 1.1c0 .031-.031.047-.094.047l5.961 7.721v.094h-2.265q-.036 0-6.911-8.965v-.047h.716q3.8 0 4.564-2.734a3.956 3.956 0 0 0 .047-.528v-.141h-5.573a.083.083 0 0 1-.094-.094v-1.053c.008-.063.039-.094.094-.094h5.527a3.066 3.066 0 0 0-1.2-1.737 5.029 5.029 0 0 0-2.311-.669h-2.016a.083.083 0 0 1-.094-.094v-1.055c.013-.062.044-.094.094-.094Z"/></g><path class="d" d="M55.999 41.977a10.329 10.329 0 0 0-10.318 10.318h3.374a6.944 6.944 0 0 1 13.887 0h3.374a10.329 10.329 0 0 0-10.317-10.318Z"/></svg>
