<svg xmlns="http://www.w3.org/2000/svg" width="73.562" height="87"><defs><style>.a{fill:#eea884}.b{fill:#f7be9d}.c{fill:#162b75}.d{fill:#f26522}.e{fill:#ebeef2}</style></defs><path class="a" d="m60.094 63.856-1.869-15.18-3.5.431-6.789-3.821a4.092 4.092 0 0 0-2.382-.508l-10.719.991a4.091 4.091 0 0 0-3.16 2.018l-7.555 13a1.8 1.8 0 0 0 .919 2.584l.309.117a6.7 6.7 0 0 0 1.816.405l-.958.834-1.915 1.669-5.447 4.646a2.327 2.327 0 0 0-.226 3.284l.552.633a2.992 2.992 0 0 0 4.219.288l2.082 2.388a2.985 2.985 0 0 0 4.219.288l2.08 2.388a2.992 2.992 0 0 0 4.221.29l1.13.977a2.992 2.992 0 0 0 4.221.29l1.536-1.34 12.916-10.059.014-.013 5.1-.005Z"/><path class="a" d="m54.56 66.546-.014.013L41.63 76.618l-1.536 1.341a2.992 2.992 0 0 1-4.221-.29l-1.13-.977a2.993 2.993 0 0 1-4.222-.29l-2.079-2.388a2.985 2.985 0 0 1-4.219-.288l-2.082-2.388a2.99 2.99 0 0 1-3.7.176 2.326 2.326 0 0 0 .184 2.813l.553.633a2.991 2.991 0 0 0 4.219.288l2.082 2.388a2.986 2.986 0 0 0 4.219.288l2.079 2.388a2.992 2.992 0 0 0 4.221.29l1.13.977a2.992 2.992 0 0 0 4.222.29l1.536-1.34L55.802 70.47l.014-.013h5.1l-.564-4.58Z"/><path class="b" d="m56.91 73.112-6.92-5.967-1.925-1.658-1.377-1.186-5.92-5.1.684-5.82a4.017 4.017 0 0 0-2.918-4.34L25.628 45.47a2.986 2.986 0 0 0-3.455 1.517l-1.623 3.168-6.966-.473-1.785 15.19-.775 6.6 6.781.451.014.013 14.167 12.211 1.544 1.332a2.992 2.992 0 0 0 4.22-.313l2.066-2.4a2.992 2.992 0 0 0 4.22-.313l2.067-2.4a2.986 2.986 0 0 0 4.217-.311l2.068-2.4a2.991 2.991 0 0 0 4.218-.311l.549-.636a2.328 2.328 0 0 0-.245-3.283Z"/><path class="b" d="m56.911 73.113-2.108-1.818a2.471 2.471 0 0 1-.1 3.1l-.583.675a3.176 3.176 0 0 1-4.477.331l-2.2 2.547a3.169 3.169 0 0 1-4.476.331l-2.194 2.547a3.176 3.176 0 0 1-4.479.333l-2.193 2.545a3.156 3.156 0 0 1-1.505.97l.934.806a2.992 2.992 0 0 0 4.219-.313l2.066-2.4a2.992 2.992 0 0 0 4.22-.313l2.066-2.4a2.985 2.985 0 0 0 4.217-.311l2.069-2.4a2.991 2.991 0 0 0 4.217-.312l.549-.636a2.327 2.327 0 0 0-.242-3.282Z"/><path class="b" d="m53.088 76.544-3.792-3.269a1.077 1.077 0 1 0-1.407 1.632l3.785 3.264.714-.828a2.975 2.975 0 0 0 .937.545 1.078 1.078 0 0 0-.237-1.344ZM47.026 80.596a1.077 1.077 0 0 0-.224-1.362l-3.406-2.937a1.078 1.078 0 1 0-1.407 1.632l3.406 2.937.7-.817a2.986 2.986 0 0 0 .931.547Z"/><path class="a" d="m18.159 71.906-.821 1.084a2.68 2.68 0 0 0 .519 3.756 2.681 2.681 0 0 0 3.755-.519l.821-1.084a2.681 2.681 0 0 0-.518-3.756 2.681 2.681 0 0 0-3.756.519Z"/><path class="a" d="m23.158 74.186-1.546 2.041a2.681 2.681 0 0 0 .519 3.756 2.681 2.681 0 0 0 3.756-.519l1.545-2.041a2.681 2.681 0 0 0-.518-3.756 2.681 2.681 0 0 0-3.756.519Z"/><path class="a" d="m27.993 76.682-2.106 2.782a2.68 2.68 0 0 0 .519 3.755 2.681 2.681 0 0 0 3.755-.518l2.107-2.782a2.681 2.681 0 0 0-.518-3.756 2.681 2.681 0 0 0-3.757.519Z"/><path class="a" d="m32.388 79.758-2.229 2.943a2.681 2.681 0 0 0 .519 3.756 2.681 2.681 0 0 0 3.756-.519l2.229-2.943a2.681 2.681 0 0 0-.519-3.755 2.681 2.681 0 0 0-3.756.518ZM54.725 49.105l-6.789-3.821a4.09 4.09 0 0 0-2.382-.508l-10.719.991a4.09 4.09 0 0 0-3.16 2.018l-7.555 13a1.8 1.8 0 0 0 .919 2.584l.309.117a6.717 6.717 0 0 0 7.7-2.191l2.895-3.767s6.958 8.056 14.618-1.352"/><path class="c" d="m73.553 72.482-3.551-28.843a1.078 1.078 0 0 0-1.2-.938l-8.3 1.022a3.945 3.945 0 0 0-3.429 4.392l2.851 23.16a3.937 3.937 0 0 0 4.392 3.429l8.3-1.022a1.078 1.078 0 0 0 .937-1.2Z"/><path class="c" d="m73.554 72.482-.39-3.166a1.127 1.127 0 0 1-.795.486l-8.7 1.071a4.125 4.125 0 0 1-4.036-1.957l.291 2.36a3.938 3.938 0 0 0 4.392 3.429l8.3-1.022a1.078 1.078 0 0 0 .938-1.201Z"/><path class="d" d="m13.063 43.723-8.3-1.022a1.078 1.078 0 0 0-1.2.938L.012 72.482a1.078 1.078 0 0 0 .938 1.2l8.3 1.022a3.939 3.939 0 0 0 4.392-3.429l2.852-23.161a3.945 3.945 0 0 0-3.431-4.391Z"/><path class="d" d="m.008 72.482.39-3.166a1.125 1.125 0 0 0 .794.486l8.7 1.071a4.184 4.184 0 0 0 .508.031 4.14 4.14 0 0 0 3.528-1.988l-.291 2.36a3.945 3.945 0 0 1-3.908 3.459 3.989 3.989 0 0 1-.484-.03l-8.3-1.022a1.077 1.077 0 0 1-.937-1.201Z"/><g transform="translate(4.697 65.781)"><circle class="e" cx="2.083" cy="2.083" r="2.083" transform="translate(59.885)"/><circle class="e" cx="2.083" cy="2.083" r="2.083"/></g><path class="d" d="M36.222.004a19.873 19.873 0 0 0-19.873 19.873A19.873 19.873 0 0 0 36.222 39.75a19.873 19.873 0 0 0 19.873-19.877A19.9 19.9 0 0 0 36.222.004Z"/><path d="M2281.22 31.127a3.716 3.716 0 0 1-2.73-1.019 3.819 3.819 0 0 1-1.032-2.848 8.6 8.6 0 0 1 .313-2.273 6.945 6.945 0 0 1 .94-2.077 5.144 5.144 0 0 1 1.581-1.515 4.219 4.219 0 0 1 2.26-.588 3.717 3.717 0 0 1 2.73 1.019 3.824 3.824 0 0 1 1.032 2.848 9.175 9.175 0 0 1-.3 2.325 6.888 6.888 0 0 1-.914 2.077 4.709 4.709 0 0 1-1.581 1.489 4.5 4.5 0 0 1-2.299.562Zm2.821-6.636a2.914 2.914 0 0 0-.313-1.411 1.168 1.168 0 0 0-1.123-.575 1.954 1.954 0 0 0-1.424.549 3.841 3.841 0 0 0-.875 1.319 7.18 7.18 0 0 0-.444 1.62 9.724 9.724 0 0 0-.131 1.45 2.683 2.683 0 0 0 .34 1.45 1.227 1.227 0 0 0 1.123.536 1.911 1.911 0 0 0 1.411-.549 3.939 3.939 0 0 0 .862-1.319 7.2 7.2 0 0 0 .444-1.62 9.781 9.781 0 0 0 .131-1.45Zm7.812-3.945h1.907l-10.45 19.542h-1.855Zm.888 19.281a3.717 3.717 0 0 1-2.73-1.019 3.82 3.82 0 0 1-1.032-2.848 8.623 8.623 0 0 1 .313-2.273 6.942 6.942 0 0 1 .941-2.077 5.143 5.143 0 0 1 1.58-1.515 4.22 4.22 0 0 1 2.26-.588 3.718 3.718 0 0 1 2.73 1.019 3.823 3.823 0 0 1 1.032 2.848 9.16 9.16 0 0 1-.3 2.325 6.9 6.9 0 0 1-.914 2.077 4.708 4.708 0 0 1-1.581 1.489 4.5 4.5 0 0 1-2.299.562Zm2.821-6.636a2.911 2.911 0 0 0-.313-1.411 1.167 1.167 0 0 0-1.123-.575 1.91 1.91 0 0 0-1.411.549 4.117 4.117 0 0 0-.875 1.319 6.782 6.782 0 0 0-.457 1.62 9.75 9.75 0 0 0-.13 1.45 2.767 2.767 0 0 0 .326 1.45 1.222 1.222 0 0 0 1.136.535 1.91 1.91 0 0 0 1.411-.549 3.94 3.94 0 0 0 .862-1.319 7.194 7.194 0 0 0 .444-1.62 9.739 9.739 0 0 0 .131-1.449Z" transform="translate(-2251.585 -10.889)" style="fill:#fff"/></svg>
