<svg xmlns="http://www.w3.org/2000/svg" width="86.466" height="85"><defs><style>.a{fill:#162b75}.c{fill:#d4d2d2}.d{fill:#f26522}.e{fill:#fe8639}</style></defs><g transform="translate(-4285.841 43.488)"><path class="a" d="M4372.307-25.9h-64.483v-7.328l32.242-10.259 32.241 10.259Z"/><circle cx="4.53" cy="4.53" r="4.53" transform="translate(4335.46 -39.173)" style="fill:#fff"/><path class="c" d="M4310.755-20.04h8.794v33.707h-8.794ZM4326.875-20.04h8.793v33.707h-8.793ZM4344.462-20.04h8.794v33.707h-8.794ZM4360.582-20.04h8.793v33.707h-8.793Z"/><path class="c" d="M4310.755-20.04h8.794v4.4h-8.794ZM4326.876-20.04h8.793v4.4h-8.793ZM4344.462-20.04h8.794v4.4h-8.794ZM4360.582-20.04h8.793v4.4h-8.793ZM4307.824 13.667h64.483v11.724h-64.483Z"/><path class="c" d="M4322.478 13.667h35.172v11.724h-35.172Z"/><path class="c" d="M4322.478 19.529h35.172v5.862h-35.172Z"/><path class="a" d="M4322.478 18.064h35.172v2.931h-35.172Z"/><path class="c" d="M4369.377-20.04h-58.621l-2.932-2.931v-2.931h64.483v2.931ZM4329.806-34.695h2.931v2.931h-2.931ZM4347.393-34.695h2.932v2.931h-2.932Z"/><path class="d" d="M4285.841 6.34h55.69v35.172h-55.69Z"/><path class="e" d="M4285.841-5.385h55.69v29.31h-55.69ZM4285.841 34.184h55.69v2.931h-55.69ZM4285.841 28.322h55.69v2.931h-55.69Z"/><path class="d" d="M4331.272 18.065H4296.1a4.4 4.4 0 0 0-4.4-4.4V4.872a4.4 4.4 0 0 0 4.4-4.4h35.172a4.4 4.4 0 0 0 4.4 4.4v8.793a4.4 4.4 0 0 0-4.4 4.4Z"/><path class="e" d="M4297.565 7.805h2.932v2.931h-2.932ZM4326.875 7.805h2.93v2.931h-2.93Z"/><circle class="e" cx="8.845" cy="8.845" r="8.845" transform="translate(4304.825 .522)"/><path d="M4413.841 164.512h8.793v46.9h-8.793Z" transform="translate(-104.552 -169.897)" style="fill:#ffb431"/><path d="M4413.841 324.512h8.793V342.1h-8.793Z" transform="translate(-104.552 -300.586)" style="fill:#f9a91b"/><path class="d" d="M4318.082-5.385h2.93v29.31h-2.93Z"/><path class="d" d="M4318.082.477h2.93v17.588h-2.93ZM4318.082 23.926h2.93v17.588h-2.93Z"/></g></svg>
