<?xml version="1.0" encoding="UTF-8"?><svg id="Layer_1" xmlns="http://www.w3.org/2000/svg" viewBox="0 0 304 84"><defs><style>.cls-1{fill:#fff;}.cls-2{fill:#116a9e;}.cls-3{fill:#f99d1c;}</style></defs><rect class="cls-2" x="-8.96" y="-10.19" width="319.68" height="101.93"/><g><g><path class="cls-3" d="M207.06,29.43c.34-.02,1.92-.05,2.26-.08,.35-.04,.59-.06,.75-.06,.5,0,.74,.26,.72,.76,0,.18-.11,.4-.34,.67-.17,.21-.34,.42-.49,.61l-10.47,14.48c-.4,.58-.61,1.05-.64,1.41-.02,.5,.39,.99,1.02,1.23l-2.81,4.86c-.26-.03-.44-.26-1.15-.26-.71,0-1.23,.03-1.56,.09l-1.07,.15c-.11,.02-.22,.03-.32,.03-.43,0-.64-.2-.64-.61,0-.29,.35-.91,1.04-1.85l11.1-15.27c.21-.29,.32-.51,.32-.67,0-.19-1.45-.29-1.85-.29"/><path class="cls-1" d="M27.57,35.34c0,.12-.01,.24-.01,.37v9.08l-.03,1.1,.4,1.96c.56,1.23,1.55,2.27,2.97,3.13,1.43,.85,2.9,1.28,4.41,1.28,2.45,0,4.41-.89,5.86-2.67,1.46-1.78,2.18-4.17,2.18-7.16s-.97-5.79-2.9-8.18c-1.93-2.39-4.15-3.59-6.64-3.59-1.05,0-2.03,.21-2.95,.62l-.17-1.14c.49-.29,.96-.52,1.39-.7,1.26-.53,2.63-.79,4.13-.79,2.98,0,5.41,1.07,7.3,3.22,1.89,2.14,2.83,4.9,2.83,8.26,0,3.79-1.14,6.99-3.42,9.6-2.28,2.61-5.07,3.92-8.38,3.92-2.79,0-5.39-.94-7.82-2.82-.31-.25-.54-.37-.69-.35-.26,.02-.65,.54-1.16,1.57-.55,1.03-.96,1.54-1.23,1.54-.35,0-.53-.25-.53-.75,0-.19,.07-.58,.2-1.18,.16-.67,.23-1.75,.23-3.22V19.92c0-2.19-.17-3.6-.49-4.23-.17-.31-.45-.6-.82-.89-.37-.29-.67-.42-.88-.4l-1.82,.14-.23-.06c-.17-.08-.26-.22-.26-.41,.02-.35,.34-.6,.96-.74,2.29-.52,4.44-1.36,6.42-2.54,.25-.13,.45-.2,.61-.2,.33,0,.49,.29,.49,.86v23.89Z"/><path class="cls-1" d="M64.24,40.15v-3.56c0-2.2-.41-3.71-1.24-4.56-1.11-1.15-2.61-1.72-4.5-1.72-2.54,0-3.81,1.07-3.81,3.2,0,.63,.12,1.35,.37,2.17,.11,.34,.18,.65,.2,.92,.02,.34-.17,.51-.57,.51-.9,0-1.71-.19-2.45-.58-.74-.38-1.1-.81-1.1-1.27,0-1.19,.64-2.47,1.93-3.85,1.73-1.86,4.03-2.79,6.89-2.79,2.61,0,4.64,.58,6.08,1.74,1.44,1.16,2.16,2.8,2.16,4.91v11.29c0,1.79,.22,3.06,.65,3.82,.43,.76,1.16,1.14,2.18,1.14,.29,0,.52-.01,.69-.05,.35-.08,.58-.12,.69-.12,.33-.02,.48,.12,.46,.4-.02,.35-.47,.7-1.36,1.05-.89,.36-1.76,.53-2.6,.53-1.58,0-3.01-.98-4.28-2.94-2.78,2.11-5.36,3.17-7.74,3.17-1.8,0-3.24-.49-4.3-1.46-1.06-.97-1.6-2.27-1.6-3.91,0-2.21,1.01-3.93,3.02-5.15,2.01-1.22,5.42-2.19,10.21-2.93m0,1.15c-2.98,.27-5.28,.94-6.91,2.02-1.62,1.08-2.44,2.46-2.44,4.14,0,1.32,.39,2.37,1.16,3.14,.77,.77,1.82,1.16,3.14,1.16,1.6,0,2.95-.52,4.04-1.58,.67-.67,1-1.73,1-3.18v-5.71Z"/><path class="cls-1" d="M83.59,33.23c2.58-3.06,5.25-4.59,8.02-4.59,3.07,0,5.51,1.26,7.29,3.78,1.23,1.73,1.85,4.37,1.85,7.91v6.9l-.03,.87,.09,1.39c.21,1.27,1.02,2.01,2.42,2.22l1.21,.17c.52,.08,.79,.26,.81,.56,.02,.41-.3,.62-.95,.62-.21,0-.58-.03-1.12-.1-.63-.09-1.8-.13-3.51-.13l-2.85,.08h-1.09l-.83,.06-.4-.09c-.13-.08-.2-.23-.2-.45,0-.3,.17-.48,.52-.56l.87-.23c.77-.19,1.15-.88,1.15-2.07v-9.94c0-2.67-.62-4.73-1.85-6.18-1.23-1.45-2.99-2.17-5.26-2.17-1.6,0-3.02,.47-4.26,1.41-1.24,.94-1.87,2.02-1.87,3.23v11.01l.03,.87,.03,1.44c.1,1.62,1.43,2.5,4.01,2.66,.63,.06,.95,.27,.95,.62s-.22,.53-.66,.53c-.33,0-.82-.05-1.47-.16-.37-.05-1.27-.07-2.71-.07-3.06,0-4.88,.04-5.48,.13-.6,.07-.98,.1-1.15,.1-.37,0-.54-.16-.52-.47,.02-.24,.2-.42,.55-.56,.98-.34,1.64-.77,1.97-1.27,.34-.5,.51-1.31,.51-2.42v-13.02c0-1.36-.16-2.29-.49-2.78-.33-.49-.94-.73-1.85-.73l-1.24,.03c-.17,0-.33-.04-.46-.12-.17-.08-.26-.22-.26-.41,0-.28,.25-.46,.75-.56,1.29-.23,2.53-.63,3.72-1.18l1.53-.75c.6-.29,.97-.47,1.13-.55,.27-.15,.5-.23,.69-.23,.35,0,.5,.28,.46,.84-.02,.31-.03,.67-.03,1.1v3.26Z"/><path class="cls-1" d="M115.57,40.7l8.54-7.43c.71-.62,1.06-1.13,1.06-1.53,0-.69-.51-1.15-1.53-1.36-.73-.15-1.09-.36-1.09-.62,0-.38,.24-.55,.72-.53,.29,.02,.79,.06,1.5,.13,.52,.07,1.4,.1,2.63,.1,1.75,0,2.99-.03,3.7-.09,.69-.04,1.2-.06,1.51-.06,.37,0,.56,.14,.58,.42,.02,.34-.37,.6-1.18,.79-1.5,.33-2.64,.79-3.43,1.39l-2.13,1.62-1,.75-5.2,4.6,1.29,1.67c3.99,5.14,6.64,8.28,7.95,9.41,1.31,1.13,3.04,1.76,5.17,1.9,.48,.02,.72,.18,.72,.47,0,.43-.33,.65-.98,.65l-2.31-.09-1.33,.03c-1.21,0-1.97,.01-2.28,.03-.25,.02-.45,.03-.61,.03-.46,0-.94-.27-1.44-.81l-4.14-4.47c-1.13-1.21-2.81-3.29-5.03-6.23l-1.7,1.47v4.51c0,1.61,.3,2.74,.91,3.41,.61,.66,1.64,.99,3.1,.99,.54,0,.81,.17,.81,.5,0,.43-.26,.65-.78,.65-.14,0-.76-.09-1.88-.26-.29-.04-.81-.06-1.56-.06-2.52,0-4.04,.03-4.54,.09-1.49,.13-2.34,.2-2.57,.2-.37,0-.55-.16-.55-.47,0-.3,.13-.48,.4-.56l.98-.35c1.08-.37,1.61-1.16,1.61-2.39l.06-1.5,.03-.98V18.39c0-2.73-.95-4.09-2.86-4.09l-1.04-.03c-.42,0-.64-.16-.64-.47,0-.3,.25-.51,.75-.65l1.33-.35c1.04-.25,1.82-.49,2.34-.72l2.08-.81c.52-.21,.88-.38,1.07-.52,.25-.15,.44-.23,.58-.23,.27,0,.41,.26,.41,.78l-.03,1.15-.03,1.21v27.03Z"/><path class="cls-3" d="M144.6,35.39v11.09c0,.9,.52,1.94,1.55,3.11,1.42,1.65,3.19,2.48,5.31,2.48,2.01,0,3.61-.79,4.81-2.38,1.2-1.58,1.79-3.72,1.79-6.41,0-3.21-.79-5.87-2.38-8-1.59-2.13-3.58-3.2-5.97-3.2-.6,0-1.17,.08-1.69,.22l-.18-2.28c1.51-1.03,3.27-1.55,5.28-1.55,2.96,0,5.34,.99,7.16,2.97,1.81,1.98,2.72,4.58,2.72,7.81,0,4.19-1.23,7.63-3.69,10.32-2.46,2.7-5.59,4.05-9.4,4.05-1.32,0-2.7-.23-4.14-.67-1.43-.45-2.53-1-3.3-1.66-.25-.23-.43-.34-.55-.32-.19,.02-.61,.46-1.24,1.34-.77,1.05-1.3,1.58-1.58,1.6-.31,.02-.46-.24-.46-.78,0-.35,.02-.82,.06-1.41,.12-1.36,.17-2.39,.17-3.08V20.21c0-1.4-.24-2.42-.74-3.05-.49-.63-1.29-.95-2.41-.95-.37,0-.55-.21-.55-.65,0-.39,.22-.65,.66-.77l1.82-.4c1.76-.42,3.77-1.33,6.05-2.71,.17-.1,.34-.15,.49-.17,.27-.02,.4,.5,.4,1.56v22.32Z"/><path class="cls-3" d="M180.42,39.06c.21-.88,.32-1.63,.32-2.26,0-1.92-.46-3.49-1.39-4.71-.92-1.22-2.11-1.83-3.56-1.83-1.85,0-2.78,.76-2.78,2.29,0,.29,.02,.57,.06,.83l.09,.55c0,1.3-1.49,1.95-4.46,1.95-.77,0-1.14-.33-1.1-1.01,0-.13,.05-.35,.14-.63,.06-.21,.12-.46,.17-.75,.25-1.23,.84-2.17,1.76-2.82,2.04-1.46,4.5-2.19,7.38-2.19,3.33,0,5.82,.77,7.47,2.3,1.27,1.17,1.9,3.21,1.9,6.11,0,1.46-.06,3.29-.17,5.5-.11,2.53-.17,4.22-.17,5.07,0,1.98,.79,2.96,2.36,2.96,.56,0,.97-.07,1.24-.2,.31-.14,.53-.2,.66-.2,.27,0,.4,.14,.4,.4,0,.48-.37,.93-1.12,1.36l-1.13,.58-.98,.58c-.69,.37-1.45,.55-2.28,.55-1.69,0-3.12-1.1-4.27-3.29-3.57,2.29-6.54,3.43-8.91,3.43-1.63,0-2.91-.47-3.84-1.42-.92-.94-1.38-2.25-1.38-3.93,0-3.04,1.32-5.26,3.97-6.64,1.63-.83,4.83-1.69,9.61-2.57m-.58,1.67c-1.65-.12-3.23,.47-4.73,1.76-1.5,1.29-2.25,2.7-2.25,4.24,0,2.54,1.02,3.8,3.05,3.8,1.27,0,2.37-.3,3.32-.89,.52-.31,.87-.84,1.07-1.59,.19-.75,.29-1.99,.29-3.72l.03-2.22v-.61l-.17-.63c-.1-.08-.3-.13-.61-.14"/><path class="cls-3" d="M227.45,39.06c.21-.88,.32-1.63,.32-2.26,0-1.92-.46-3.49-1.39-4.71-.93-1.22-2.11-1.83-3.56-1.83-1.85,0-2.78,.76-2.78,2.29,0,.29,.02,.57,.06,.83l.09,.55c0,1.3-1.49,1.95-4.46,1.95-.77,0-1.14-.33-1.1-1.01,0-.13,.05-.35,.14-.63,.06-.21,.11-.46,.17-.75,.25-1.23,.84-2.17,1.76-2.82,2.04-1.46,4.5-2.19,7.38-2.19,3.32,0,5.81,.77,7.47,2.3,1.27,1.17,1.9,3.21,1.9,6.11,0,1.46-.06,3.29-.17,5.5-.12,2.53-.17,4.22-.17,5.07,0,1.98,.79,2.96,2.36,2.96,.56,0,.97-.07,1.24-.2,.31-.14,.53-.2,.66-.2,.27,0,.4,.14,.4,.4,0,.48-.38,.93-1.12,1.36l-1.12,.58-.98,.58c-.69,.37-1.45,.55-2.28,.55-1.69,0-3.11-1.1-4.27-3.29-3.57,2.29-6.55,3.43-8.91,3.43-1.63,0-2.91-.47-3.84-1.42-.92-.94-1.39-2.25-1.39-3.93,0-3.04,1.32-5.26,3.97-6.64,1.63-.83,4.83-1.69,9.61-2.57m-.58,1.67c-1.65-.12-3.23,.47-4.73,1.76-1.5,1.29-2.25,2.7-2.25,4.24,0,2.54,1.02,3.8,3.06,3.8,1.27,0,2.38-.3,3.32-.89,.52-.31,.87-.84,1.07-1.59,.19-.75,.29-1.99,.29-3.72l.03-2.22v-.61l-.17-.63c-.1-.08-.3-.13-.61-.14"/><path class="cls-3" d="M252.68,39.06c.21-.88,.32-1.63,.32-2.26,0-1.92-.47-3.49-1.39-4.71-.93-1.22-2.11-1.83-3.56-1.83-1.85,0-2.78,.76-2.78,2.29,0,.29,.02,.57,.06,.83l.09,.55c0,1.3-1.49,1.95-4.46,1.95-.77,0-1.14-.33-1.1-1.01,0-.13,.05-.35,.15-.63,.06-.21,.11-.46,.17-.75,.25-1.23,.83-2.17,1.76-2.82,2.04-1.46,4.5-2.19,7.38-2.19,3.32,0,5.81,.77,7.47,2.3,1.27,1.17,1.9,3.21,1.9,6.11,0,1.46-.06,3.29-.17,5.5-.11,2.53-.17,4.22-.17,5.07,0,1.98,.79,2.96,2.36,2.96,.56,0,.97-.07,1.24-.2,.31-.14,.53-.2,.66-.2,.27,0,.4,.14,.4,.4,0,.48-.37,.93-1.12,1.36l-1.12,.58-.98,.58c-.69,.37-1.45,.55-2.28,.55-1.69,0-3.11-1.1-4.27-3.29-3.58,2.29-6.55,3.43-8.91,3.43-1.63,0-2.91-.47-3.84-1.42-.92-.94-1.38-2.25-1.38-3.93,0-3.04,1.32-5.26,3.97-6.64,1.63-.83,4.83-1.69,9.61-2.57m-.58,1.67c-1.65-.12-3.23,.47-4.73,1.76-1.5,1.29-2.25,2.7-2.25,4.24,0,2.54,1.02,3.8,3.06,3.8,1.27,0,2.37-.3,3.32-.89,.52-.31,.87-.84,1.07-1.59,.19-.75,.29-1.99,.29-3.72l.03-2.22v-.61l-.17-.63c-.1-.08-.3-.13-.6-.14"/><path class="cls-3" d="M273.67,38.33v8.09c0,3.03,1.42,4.74,4.27,5.12,.6,.08,.89,.31,.89,.71,0,.49-.22,.73-.66,.73-.21,0-.48-.03-.81-.09-1.93-.29-3.91-.43-5.95-.43-1.08,0-2.05,.04-2.92,.12l-1.79,.17c-.33,.04-.66,.06-1.01,.06-.54,0-.81-.26-.81-.76,0-.35,.24-.59,.72-.71,1.52-.36,2.28-1.79,2.28-4.28l-.03-1.21v-10.29c0-1.38-.18-2.3-.54-2.74-.35-.45-1.12-.73-2.29-.82-.44-.04-.66-.25-.66-.62,0-.43,.26-.69,.78-.77,2.64-.4,4.9-1.14,6.77-2.22l1.13-.66c.15-.1,.3-.14,.43-.14,.29,0,.43,.21,.43,.64,0,.13-.01,.41-.03,.84l-.09,1.61-.12,1.79,.03,.32c.08,.27,.22,.41,.43,.43,.19,.02,.61-.44,1.26-1.38,.51-.73,1.31-1.51,2.39-2.35,1.08-.84,1.81-1.25,2.22-1.25,.66,0,1.64,.5,2.94,1.5,1.3,1,1.97,1.75,1.99,2.25,0,.17-.31,.84-.93,2.02-.8,1.48-1.49,2.22-2.1,2.22-.25,0-.47-.1-.69-.29l-.8-.72c-.97-.9-2.09-1.36-3.35-1.36-2.25,0-3.38,1.5-3.38,4.49"/><path class="cls-1" d="M209.66,52.05c0,1.33-1.08,2.4-2.4,2.4s-2.4-1.07-2.4-2.4,1.07-2.4,2.4-2.4,2.4,1.08,2.4,2.4"/><path class="cls-1" d="M198.45,30.92c0,1.33-1.08,2.4-2.4,2.4s-2.4-1.07-2.4-2.4,1.07-2.4,2.4-2.4,2.4,1.08,2.4,2.4"/></g><g><path class="cls-1" d="M173.91,69.98c0-4.23,2.49-6.82,5.84-6.82,1.6,0,2.85,.76,3.61,1.62l-.9,1.08c-.7-.74-1.56-1.24-2.69-1.24-2.49,0-4.13,2.05-4.13,5.32s1.59,5.4,4.07,5.4c1.26,0,2.21-.56,3.05-1.49l.92,1.04c-1.04,1.2-2.33,1.91-4.03,1.91-3.29,0-5.74-2.53-5.74-6.82Z"/><path class="cls-1" d="M185.97,66.81h1.36l.14,1.77h.06c.66-1.22,1.67-2.01,2.77-2.01,.42,0,.72,.06,1.04,.2l-.32,1.44c-.32-.1-.54-.16-.94-.16-.82,0-1.81,.6-2.47,2.25v6.26h-1.65v-9.75Z"/><path class="cls-1" d="M192.01,71.71c0-3.19,2.15-5.14,4.37-5.14,2.49,0,3.89,1.79,3.89,4.57,0,.34-.02,.7-.06,.94h-6.58c.12,2.07,1.38,3.39,3.25,3.39,.92,0,1.71-.3,2.43-.76l.58,1.08c-.84,.54-1.89,1-3.21,1-2.61,0-4.68-1.91-4.68-5.1Zm6.82-.8c0-1.97-.88-3.03-2.41-3.03-1.36,0-2.61,1.1-2.81,3.03h5.22Z"/><path class="cls-1" d="M201.98,71.71c0-3.17,2.01-5.14,4.23-5.14,1.12,0,1.87,.42,2.73,1.12l-.08-1.67v-3.75h1.67v14.29h-1.37l-.14-1.14h-.06c-.76,.74-1.81,1.38-2.95,1.38-2.45,0-4.03-1.85-4.03-5.1Zm6.88,2.37v-5.1c-.82-.74-1.56-1.02-2.37-1.02-1.57,0-2.81,1.5-2.81,3.73s.98,3.73,2.69,3.73c.9,0,1.69-.44,2.49-1.34Z"/><path class="cls-1" d="M213.52,63.74c0-.64,.5-1.06,1.14-1.06s1.14,.42,1.14,1.06-.5,1.06-1.14,1.06-1.14-.44-1.14-1.06Zm.3,3.07h1.65v9.75h-1.65v-9.75Z"/><path class="cls-1" d="M219.04,73.55v-5.4h-1.45v-1.24l1.53-.1,.2-2.73h1.38v2.73h2.63v1.34h-2.63v5.42c0,1.2,.38,1.89,1.5,1.89,.34,0,.78-.14,1.1-.26l.32,1.24c-.54,.18-1.2,.36-1.81,.36-2.09,0-2.79-1.33-2.79-3.25Z"/><path class="cls-1" d="M232.44,64.8h-3.97v-1.41h9.63v1.41h-3.97v11.76h-1.69v-11.76Z"/><path class="cls-1" d="M238.26,71.71c0-3.27,2.13-5.14,4.51-5.14s4.51,1.87,4.51,5.14-2.13,5.1-4.51,5.1-4.51-1.87-4.51-5.1Zm7.32,0c0-2.25-1.12-3.77-2.81-3.77s-2.81,1.52-2.81,3.77,1.14,3.73,2.81,3.73,2.81-1.5,2.81-3.73Z"/><path class="cls-1" d="M256.16,71.46l-3.95-8.07h1.79l1.71,3.71c.42,.96,.82,1.89,1.26,2.87h.08c.46-.98,.92-1.91,1.32-2.87l1.69-3.71h1.75l-3.95,8.07v5.1h-1.69v-5.1Z"/><path class="cls-1" d="M261.88,71.71c0-3.27,2.13-5.14,4.51-5.14s4.51,1.87,4.51,5.14-2.13,5.1-4.51,5.1-4.51-1.87-4.51-5.1Zm7.32,0c0-2.25-1.12-3.77-2.81-3.77s-2.81,1.52-2.81,3.77,1.14,3.73,2.81,3.73,2.81-1.5,2.81-3.73Z"/><path class="cls-1" d="M273.33,72.99v-6.18h1.67v5.96c0,1.83,.54,2.61,1.83,2.61,1,0,1.71-.5,2.63-1.65v-6.92h1.65v9.75h-1.37l-.14-1.53h-.06c-.9,1.06-1.87,1.77-3.21,1.77-2.07,0-2.99-1.33-2.99-3.81Z"/></g></g></svg>